# xmcd
#
# Track frame offsets: 
#        150
#        48900
#        64125
#        82575
#        99225
#        118350
#        134250
#        151950
#        168450
#        227700
#        243375
#        261000
#        276900
#
# Disc length: 4027 seconds
#
# Revision: 4
# Processed by: cddbd v1.5.2PL0 Copyright (c) Steve Scherf et al.
# Submitted via: ExactAudioCopy v0.95b4
#
DISCID=a80fb90d
DTITLE=Toru Takemitsu - I Hear The Water Dreaming
DYEAR=2000
DGENRE=Contemporary music
TTITLE0=I Hear The Water Dreaming
TTITLE1=Toward the Sea I - 1. The Night
TTITLE2=Toward the Sea I - 2. Moby Dick
TTITLE3=Toward the Sea I - 3. Cape Cod
TTITLE4=Les Fils des Etoiles (Satie, Arr. Takemitsu)
TTITLE5=Toward the Sea II - 1. The Night
TTITLE6=Toward the Sea II - 2. Moby Dick
TTITLE7=Toward the Sea II - 3. Cape Cod
TTITLE8=And Then I Knew 'twas Wind
TTITLE9=Toward the Sea III - 1. The Night
TTITLE10=Toward the Sea III - 2. Moby Dick
TTITLE11=Toward the Sea III - 3. Cape Cod
TTITLE12=Air
EXTD=YEAR: 2000
EXTT0=
EXTT1=
EXTT2=
EXTT3=
EXTT4=
EXTT5=
EXTT6=
EXTT7=
EXTT8=
EXTT9=
EXTT10=
EXTT11=
EXTT12=
PLAYORDER=
